<svg width="375" height="181" viewBox="0 0 375 181" fill="none" xmlns="http://www.w3.org/2000/svg">
<g clip-path="url(#clip0_3_988)">
<path d="M0 0H375V145C375 164.882 358.882 181 339 181H36C16.1178 181 0 164.882 0 145V0Z" fill="url(#paint0_linear_3_988)"/>
<path d="M378.591 93.4078C317.653 32.5917 213.1 75.9024 213.019 161.992C211.943 214.123 257.874 260.062 310.009 258.981C396.102 258.896 439.407 154.34 378.591 93.4078ZM370.554 101.445C402.227 131.857 403.949 186.025 374.438 218.384L349.399 193.345C351.032 189.523 352.124 185.417 352.579 181.124H372.088V169.758H352.275C351.857 167.153 351.202 164.627 350.335 162.202C358.463 159.125 365.065 152.753 368.37 144.618L357.84 140.34C355.559 145.955 350.816 150.251 345.043 151.999C342.652 148.602 339.782 145.566 336.53 142.992V133.399C336.53 126.062 333.379 119.517 328.482 115.278L336.096 107.663L328.06 99.6259L317.308 110.378C316.176 110.18 306.054 110.309 304.674 110.274C304.012 110.274 303.357 110.312 302.71 110.378L291.959 99.6259L283.922 107.663L291.537 115.278C287.875 118.447 285.195 122.903 284.074 128.018L253.617 97.5607C285.977 68.0492 340.142 69.7734 370.554 101.445ZM304.673 121.641H315.344C320.758 121.641 325.163 126.916 325.163 133.399V136.538C315.839 132.867 304.179 132.867 294.854 136.538V133.399C294.854 126.916 299.259 121.641 304.673 121.641ZM291.3 151.32L335.266 195.286C329.531 203.009 320.345 208.024 310.008 208.024C279.626 207.832 267.237 169.195 291.3 151.32ZM302.174 146.12C325.112 140.081 346.505 161.481 340.466 184.412L302.174 146.12ZM249.463 222.537C217.791 192.125 216.069 137.957 245.579 105.598L283.203 143.222C280.068 145.747 277.294 148.702 274.974 152C269.201 150.252 264.458 145.956 262.177 140.341L251.647 144.618C254.952 152.754 261.554 159.126 269.682 162.202C268.815 164.628 268.161 167.154 267.742 169.758H247.929V181.125H267.438C267.723 183.812 268.258 186.425 269.019 188.942C261.196 192.109 254.862 198.352 251.647 206.264L262.177 210.542C264.294 205.332 268.528 201.257 273.739 199.299C288.899 224.057 325.363 226.285 343.364 203.384L366.401 226.421C334.04 255.933 279.875 254.209 249.463 222.537Z" fill="white" fill-opacity="0.1"/>
<path d="M65.1175 121.882C50.3541 107.149 25.0241 117.641 25.0045 138.498C24.744 151.128 35.8714 162.257 48.5023 161.995C69.3597 161.975 79.8512 136.644 65.1175 121.882ZM63.1704 123.83C70.8436 131.197 71.2607 144.32 64.1113 152.16L58.0451 146.094C58.4407 145.168 58.7052 144.173 58.8156 143.133H63.542V140.379H58.742C58.6405 139.748 58.482 139.137 58.2718 138.549C60.2411 137.804 61.8404 136.26 62.6412 134.289L60.09 133.252C59.5374 134.613 58.3884 135.654 56.9897 136.077C56.4106 135.254 55.7153 134.519 54.9273 133.895V131.571C54.9273 129.793 54.164 128.208 52.9775 127.181L54.8223 125.336L52.8752 123.389L50.2705 125.994C49.9962 125.946 47.5439 125.977 47.2096 125.969C47.0492 125.969 46.8907 125.978 46.7339 125.994L44.1291 123.389L42.182 125.336L44.0269 127.181C43.1399 127.948 42.4905 129.028 42.2188 130.267L34.8401 122.888C42.68 115.739 55.8024 116.156 63.1704 123.83ZM47.2095 128.722H49.7947C51.1064 128.722 52.1736 130 52.1736 131.571V132.331C49.9145 131.442 47.0897 131.442 44.8306 132.331V131.571C44.8306 130 45.8978 128.722 47.2095 128.722ZM43.9696 135.912L54.6212 146.564C53.2317 148.435 51.0063 149.65 48.502 149.65C41.1413 149.604 38.1398 140.243 43.9696 135.912ZM46.604 134.653C52.1611 133.19 57.3439 138.374 55.881 143.93L46.604 134.653ZM33.8338 153.166C26.1606 145.798 25.7435 132.675 32.8928 124.836L42.0079 133.951C41.2484 134.562 40.5765 135.278 40.0144 136.077C38.6157 135.654 37.4667 134.613 36.9141 133.253L34.3629 134.289C35.1637 136.26 36.763 137.804 38.7323 138.549C38.5222 139.137 38.3637 139.749 38.2622 140.38H33.4621V143.133H38.1885C38.2576 143.784 38.3873 144.418 38.5717 145.027C36.6763 145.794 35.1417 147.307 34.3629 149.224L36.9141 150.26C37.4268 148.998 38.4527 148.011 39.7151 147.536C43.3879 153.534 52.2219 154.074 56.5829 148.526L62.1642 154.107C54.3241 161.257 41.2017 160.839 33.8338 153.166Z" fill="white"/>
<path d="M85.267 137L91.7699 117.077H99.115L105.618 137H99.4601L98.4522 133.038H92.4326L91.4247 137H85.267ZM95.3044 121.827L93.4957 128.909H97.3891L95.5805 121.827H95.3044ZM108.496 137V121.481H114.157V123.939H114.433C115.068 122.227 116.669 121.095 118.823 121.095C122.247 121.095 124.014 123.249 124.014 126.976V137H118.354V128.233C118.354 126.617 117.705 125.651 116.269 125.651C114.916 125.651 114.157 126.728 114.157 128.233V137H108.496ZM134.886 137C130.551 137 128.839 135.744 128.839 132.679V125.568H126.506V121.481H128.839V118.071H134.5V121.481H137.523V125.568H134.5V131.422C134.5 132.402 135.066 132.913 136.253 132.913C136.861 132.913 137.192 132.886 137.523 132.844V136.793C136.985 136.903 135.963 137 134.886 137ZM143.535 119.687C141.962 119.687 140.65 118.444 140.65 116.87C140.65 115.282 141.962 114.04 143.535 114.04C145.123 114.04 146.421 115.282 146.421 116.87C146.421 118.444 145.123 119.687 143.535 119.687ZM140.705 137V121.481H146.366V137H140.705ZM150.79 137V117.077H158.411C162.07 117.077 164.307 118.996 164.307 122.034V122.061C164.307 124.118 162.788 125.996 160.869 126.341V126.562C163.589 126.907 165.315 128.771 165.315 131.395V131.422C165.315 134.915 162.802 137 158.563 137H150.79ZM157.887 119.272H153.275V125.665H157.252C160.261 125.665 161.794 124.588 161.794 122.489V122.462C161.794 120.446 160.358 119.272 157.887 119.272ZM157.956 127.805H153.275V134.805H158.19C161.186 134.805 162.76 133.59 162.76 131.298V131.27C162.76 128.978 161.131 127.805 157.956 127.805ZM174.143 137.262C170.761 137.262 169.021 135.274 169.021 131.754V122.117H171.423V131.174C171.423 133.852 172.39 135.136 174.765 135.136C177.388 135.136 178.782 133.535 178.782 130.925V122.117H181.185V137H178.782V134.777H178.561C177.83 136.365 176.325 137.262 174.143 137.262ZM191.891 142.246C188.301 142.246 186.009 140.631 185.637 138.187L185.664 138.174H188.149L188.163 138.187C188.425 139.32 189.751 140.12 191.891 140.12C194.556 140.12 196.143 138.864 196.143 136.669V133.659H195.922C194.984 135.302 193.299 136.227 191.256 136.227C187.404 136.227 185.015 133.245 185.015 129.075V129.047C185.015 124.878 187.418 121.854 191.311 121.854C193.41 121.854 195.039 122.89 195.95 124.574H196.116V122.117H198.518V136.793C198.518 140.12 195.95 142.246 191.891 142.246ZM191.78 134.101C194.542 134.101 196.199 132.03 196.199 129.075V129.047C196.199 126.093 194.528 123.98 191.78 123.98C189.019 123.98 187.473 126.093 187.473 129.047V129.075C187.473 132.03 189.019 134.101 191.78 134.101Z" fill="white"/>
<path d="M85.4419 158V147.544H88.6953C90.6372 147.544 91.8617 148.566 91.8617 150.073V150.088C91.8617 151.37 91.0429 152.334 89.7242 152.587V152.609C91.1444 152.79 92.4124 153.703 92.4124 155.268V155.283C92.4124 156.935 91.2241 158 88.7025 158H85.4419ZM88.6663 147.878H85.8042V152.457H88.6446C90.3328 152.457 91.4994 151.537 91.4994 150.102V150.088C91.4994 148.762 90.4053 147.878 88.6663 147.878ZM88.6663 152.79H85.8042V157.667H88.6735C90.9777 157.667 92.0501 156.725 92.0501 155.276V155.261C92.0501 153.739 90.6734 152.79 88.6663 152.79ZM97.4648 158.116C95.7548 158.116 94.6099 156.993 94.6099 155.312V150.204H94.9722V155.203C94.9722 156.761 95.9722 157.783 97.4938 157.783C99.1168 157.783 100.262 156.58 100.262 154.87V150.204H100.617V158H100.262V156.254H100.225C99.8487 157.406 98.8053 158.116 97.4648 158.116ZM106.423 160.659C104.836 160.659 103.677 159.964 103.445 158.906L103.452 158.898L103.821 158.891L103.829 158.906C104.075 159.753 105.104 160.326 106.437 160.326C108.147 160.326 109.285 159.34 109.285 157.862V155.783H109.249C108.836 157.152 107.727 157.971 106.285 157.971C104.307 157.971 102.966 156.37 102.966 154.044V154.029C102.966 151.696 104.314 150.088 106.285 150.088C107.691 150.088 108.865 151.001 109.249 152.377H109.278V150.204H109.64V157.942C109.64 159.551 108.321 160.659 106.423 160.659ZM106.307 157.638C108.096 157.638 109.285 156.21 109.285 154.087V154.073C109.285 151.928 108.06 150.421 106.307 150.421C104.532 150.421 103.322 151.892 103.322 154.022V154.037C103.322 156.167 104.524 157.638 106.307 157.638ZM119.122 158V147.885H115.346V147.544H123.259V147.885H119.484V158H119.122ZM124.261 158V150.204H124.623V151.74H124.659C124.978 150.703 125.797 150.088 126.855 150.088C127.224 150.088 127.478 150.124 127.79 150.218V150.58C127.478 150.464 127.195 150.428 126.84 150.428C125.594 150.428 124.623 151.58 124.623 153.08V158H124.261ZM131.415 158.116C129.871 158.116 128.813 157.232 128.813 155.913V155.899C128.813 154.602 129.77 153.848 131.56 153.703L134.378 153.479V152.711C134.378 151.211 133.465 150.421 132.023 150.421C130.712 150.421 129.712 151.015 129.494 152.116L129.487 152.124H129.125V152.116C129.342 150.827 130.494 150.088 132.023 150.088C133.683 150.088 134.74 151.001 134.74 152.703V158H134.378V156.275H134.342C133.936 157.391 132.784 158.116 131.415 158.116ZM129.176 155.913C129.176 157.015 130.096 157.783 131.436 157.783C133.074 157.783 134.378 156.594 134.378 155.102V153.812L131.632 154.022C130.031 154.145 129.176 154.805 129.176 155.899V155.913ZM140.423 158.116C138.344 158.116 137.032 156.551 137.032 154.087V154.073C137.032 151.631 138.344 150.088 140.423 150.088C141.988 150.088 143.213 151.001 143.481 152.327L143.467 152.319L143.119 152.334L143.111 152.319C142.814 151.167 141.757 150.421 140.423 150.421C138.576 150.421 137.387 151.848 137.387 154.073V154.087C137.387 156.326 138.583 157.783 140.423 157.783C141.785 157.783 142.829 157.08 143.09 155.986L143.104 155.978L143.467 155.971L143.459 155.986C143.177 157.29 142.025 158.116 140.423 158.116ZM145.874 158V147.088H146.237V154.348H146.273L150.917 150.204H151.425L147.686 153.551L151.446 158H150.975L147.403 153.776L146.237 154.848V158H145.874ZM156.347 158.116C154.238 158.116 152.89 156.565 152.89 154.123V154.102C152.89 151.616 154.238 150.088 156.274 150.088C158.31 150.088 159.6 151.638 159.6 153.906V154.123H153.245C153.267 156.37 154.484 157.783 156.347 157.783C157.651 157.783 158.687 157.167 159.042 156.29L159.056 156.254H159.426L159.404 156.312C159.02 157.37 157.846 158.116 156.347 158.116ZM156.274 150.421C154.535 150.421 153.318 151.711 153.253 153.797H159.252C159.187 151.703 158.006 150.421 156.274 150.421ZM161.935 158V150.204H162.297V151.74H162.334C162.652 150.703 163.471 150.088 164.529 150.088C164.899 150.088 165.152 150.124 165.464 150.218V150.58C165.152 150.464 164.87 150.428 164.515 150.428C163.268 150.428 162.297 151.58 162.297 153.08V158H161.935Z" fill="white"/>
</g>
<defs>
<linearGradient id="paint0_linear_3_988" x1="-8.99998" y1="-27.1873" x2="248.421" y2="279.735" gradientUnits="userSpaceOnUse">
<stop stop-color="#3D89F7"/>
<stop offset="1" stop-color="#245091"/>
</linearGradient>
<clipPath id="clip0_3_988">
<path d="M0 0H375V145C375 164.882 358.882 181 339 181H36C16.1178 181 0 164.882 0 145V0Z" fill="white"/>
</clipPath>
</defs>
</svg>
