<svg width="113" height="244" viewBox="0 0 113 244" fill="none" xmlns="http://www.w3.org/2000/svg">
<path d="M109.677 23.2218C109.677 12.9525 102.22 4.44568 92.8678 4.44568H20.6988C11.3464 4.44568 3.88963 12.9525 3.88963 23.2218V221.271C3.88963 231.54 11.3464 240.047 20.6988 240.047H92.8678C102.22 240.047 109.677 231.54 109.677 221.271V23.2218ZM20.6988 1.48781H92.8678C103.386 1.48781 112.143 11.1835 112.143 23.2218V221.271C112.143 233.309 103.386 243.005 92.8678 243.005H20.6988C10.1806 243.005 1.42347 233.309 1.42347 221.271V23.2218C1.42347 11.1835 10.1806 1.48781 20.6988 1.48781Z" fill="#717171" stroke="white" stroke-width="1.54324"/>
<path fill-rule="evenodd" clip-rule="evenodd" d="M76.952 133.597C77.1043 133.749 77.1898 133.955 77.1897 134.17C77.1895 134.385 77.1038 134.591 76.9513 134.743C76.7988 134.894 76.592 134.98 76.3765 134.979C76.1609 134.979 75.9543 134.894 75.802 134.742L73.7392 132.686V139.192C73.7392 139.407 73.6536 139.613 73.5013 139.765C73.3489 139.917 73.1422 140.002 72.9267 140.002C72.7112 140.002 72.5045 139.917 72.3522 139.765C72.1998 139.613 72.1142 139.407 72.1142 139.192V132.686L70.0514 134.742C69.8974 134.885 69.6936 134.963 69.483 134.959C69.2723 134.956 69.0713 134.871 68.9224 134.722C68.7734 134.574 68.6881 134.374 68.6845 134.164C68.6808 133.954 68.7591 133.751 68.9028 133.597L72.3519 130.159C72.5045 130.007 72.7113 129.922 72.927 129.922C73.1426 129.922 73.3494 130.007 73.502 130.159L76.952 133.597ZM81.3144 135.977C81.4481 134.879 81.3636 133.766 81.0656 132.701C80.7675 131.636 80.2619 130.64 79.5776 129.769C78.8932 128.899 78.0435 128.171 77.0771 127.628C76.1106 127.085 75.0462 126.737 73.9447 126.604C73.6013 126.563 73.2557 126.542 72.9097 126.541C71.2829 126.544 69.6916 127.016 68.327 127.898C66.9624 128.781 65.8825 130.038 65.2171 131.517C64.5517 132.996 64.329 134.636 64.5758 136.238C64.8226 137.841 65.5284 139.338 66.6084 140.55C67.6884 141.763 69.0967 142.639 70.6641 143.073C72.2315 143.507 73.8914 143.481 75.4444 142.998C76.9973 142.515 78.3774 141.596 79.4186 140.35C80.4599 139.104 81.1182 137.586 81.3144 135.976V135.977ZM37.3918 139.307H63.8429C63.0228 137.604 62.7013 135.706 62.9154 133.83C63.1294 131.953 63.8702 130.175 65.0528 128.7C66.2353 127.224 67.8116 126.111 69.6005 125.488C71.3894 124.866 73.3183 124.758 75.1656 125.179V118.798L69.8148 113.464L58.7148 121.438L62.0239 123.75C62.1136 123.81 62.1904 123.887 62.2497 123.977C62.3091 124.067 62.3499 124.168 62.3696 124.274C62.3894 124.38 62.3878 124.488 62.3648 124.594C62.3419 124.699 62.2982 124.798 62.2362 124.887C62.1742 124.975 62.0951 125.05 62.0037 125.107C61.9123 125.164 61.8103 125.203 61.7037 125.221C61.5971 125.238 61.488 125.235 61.3829 125.21C61.2778 125.185 61.1787 125.139 61.0914 125.076L44.4142 113.426L32.6251 123.361V134.555C32.6264 135.815 33.129 137.022 34.0225 137.913C34.9161 138.803 36.1276 139.304 37.3914 139.306L37.3918 139.307ZM37.3918 100.619H70.3989C71.6627 100.621 72.8744 101.122 73.768 102.012C74.6617 102.903 75.1643 104.11 75.1656 105.37V116.507L70.4751 111.833C70.3386 111.697 70.158 111.614 69.9656 111.598C69.7731 111.583 69.5814 111.636 69.4247 111.748L57.3058 120.454L44.8344 111.742C44.6873 111.639 44.5103 111.588 44.331 111.596C44.1516 111.605 43.9801 111.672 43.843 111.787L32.6251 121.241V105.37C32.6264 104.11 33.129 102.903 34.0226 102.012C34.9163 101.121 36.128 100.621 37.3918 100.619ZM80.8563 128.771C79.7908 127.412 78.3899 126.352 76.7905 125.694V105.37C76.7886 103.681 76.1147 102.062 74.9164 100.868C73.7182 99.6736 72.0935 99.0019 70.3989 99H37.3918C35.6972 99.0018 34.0725 99.6735 32.8742 100.868C31.6759 102.062 31.0019 103.681 31 105.37V134.556C31.0019 136.245 31.6759 137.864 32.8741 139.058C34.0724 140.252 35.697 140.924 37.3917 140.926H64.8248C64.8809 141.002 64.9389 141.078 64.9975 141.153C65.8133 142.19 66.8262 143.058 67.9784 143.705C69.1306 144.353 70.3995 144.768 71.7127 144.927C73.0258 145.086 74.3576 144.985 75.6318 144.631C76.906 144.277 78.0978 143.677 79.1391 142.864C80.1804 142.051 81.0509 141.041 81.7007 139.893C82.3506 138.745 82.7671 137.48 82.9265 136.172C83.086 134.863 82.9852 133.536 82.63 132.266C82.2748 130.997 81.6721 129.809 80.8563 128.771ZM56.6194 106.373C57.356 106.373 58.0762 106.591 58.6887 106.999C59.3012 107.407 59.7786 107.986 60.0606 108.664C60.3425 109.343 60.4163 110.089 60.2726 110.809C60.1289 111.529 59.7742 112.19 59.2533 112.71C58.7324 113.229 58.0687 113.582 57.3462 113.725C56.6237 113.869 55.8748 113.795 55.1942 113.514C54.5136 113.233 53.9319 112.758 53.5226 112.147C53.1133 111.537 52.8948 110.819 52.8948 110.085C52.8962 109.101 53.289 108.158 53.9872 107.462C54.6854 106.766 55.632 106.375 56.6194 106.373V106.373ZM56.6194 115.416C55.5613 115.416 54.527 115.103 53.6473 114.517C52.7676 113.932 52.0819 113.099 51.677 112.125C51.2721 111.151 51.1661 110.079 51.3725 109.045C51.5789 108.011 52.0884 107.061 52.8366 106.315C53.5847 105.57 54.5379 105.062 55.5756 104.856C56.6133 104.651 57.6889 104.756 58.6664 105.16C59.6439 105.563 60.4794 106.246 61.0672 107.123C61.655 108 61.9688 109.031 61.9688 110.085C61.9671 111.498 61.403 112.853 60.4002 113.853C59.3973 114.852 58.0376 115.414 56.6194 115.416Z" fill="#717171" stroke="white"/>
</svg>
