<svg width="77" height="76" viewBox="0 0 77 76" fill="none" xmlns="http://www.w3.org/2000/svg">
<g clip-path="url(#clip0_3_2417)">
<path d="M38.5 76C59.4868 76 76.5 58.9868 76.5 38C76.5 17.0132 59.4868 0 38.5 0C17.5132 0 0.5 17.0132 0.5 38C0.5 58.9868 17.5132 76 38.5 76Z" fill="#3D89F7"/>
<path d="M28.7903 55.1419L48.3297 74.6814C64.5127 70.3659 76.5001 55.6214 76.5001 38C76.5001 37.6404 76.5001 37.2807 76.5001 36.9211L61.1562 22.776L28.7903 55.1419Z" fill="#2468CB"/>
<path d="M39.459 46.511C41.1373 48.1893 41.1373 51.0662 39.459 52.7445L35.9827 56.2208C34.3045 57.899 31.4275 57.899 29.7493 56.2208L14.5253 40.877C12.847 39.1987 12.847 36.3218 14.5253 34.6435L18.0016 31.1672C19.6799 29.4889 22.5568 29.4889 24.2351 31.1672L39.459 46.511Z" fill="white"/>
<path d="M52.7649 20.0189C54.4432 18.3407 57.3201 18.3407 58.9984 20.0189L62.4747 23.4953C64.153 25.1735 64.153 28.0505 62.4747 29.7287L36.1025 55.9811C34.4243 57.6593 31.5473 57.6593 29.869 55.9811L26.3927 52.5047C24.7145 50.8265 24.7145 47.9495 26.3927 46.2713L52.7649 20.0189Z" fill="white"/>
</g>
<defs>
<clipPath id="clip0_3_2417">
<rect width="76" height="76" fill="white" transform="translate(0.5)"/>
</clipPath>
</defs>
</svg>
